<svg width="85" height="24" viewBox="0 0 85 24" fill="none" xmlns="http://www.w3.org/2000/svg">
<rect width="85" height="24" fill="white" style="mix-blend-mode:multiply"/>
<g clip-path="url(#clip0_797_55129)">
<path d="M20.4643 0.32666V17.7993L10.3941 23.6241L0.325684 17.7993V0.32666H20.4643Z" fill="#8FFA9E"/>
<path d="M0.651328 17.6104L10.3958 23.2464L20.1403 17.6104V0.653246H0.651328V17.6104ZM10.3958 24L0 17.9881V0H20.7899V17.9881L10.3958 24Z" fill="#043A7C"/>
<path d="M10.3941 0.32666L20.4643 6.14974V17.7993L10.3941 23.6241L0.325684 17.7993V6.14974L10.3941 0.32666Z" fill="#7AD1F2"/>
<path d="M0.651328 17.6104L10.3958 23.2463L20.1403 17.6104V6.33849L10.3941 0.702539L0.651328 6.33849V17.6104ZM10.5586 23.9047H10.233L0.162832 18.0816L0 17.7992V6.14966L0.162832 5.86727L10.233 0.0441895H10.5586L20.6271 5.86897L20.7899 6.15136V17.7992L20.6271 18.0816L10.5586 23.9064V23.9047Z" fill="#043A7C"/>
<path d="M10.3941 0.32666L20.4643 17.7993L10.3941 23.6241L0.325684 17.7993L10.3941 0.32666Z" fill="#F2FCFF"/>
<path d="M0.769836 17.6802L10.3939 23.2464L20.0179 17.6802L10.3939 0.978169L0.769836 17.6802ZM10.3939 23.9507C10.3379 23.9507 10.2819 23.9354 10.2311 23.9064L0.162608 18.0817C0.087977 18.0391 0.0336996 17.9677 0.00995331 17.8843C-0.0120969 17.801 -0.000223684 17.7108 0.0421805 17.636L10.1123 0.163312C10.1717 0.062943 10.2785 0 10.3939 0C10.5092 0 10.6178 0.0612419 10.6754 0.163312L20.7439 17.636C20.788 17.7108 20.7982 17.801 20.7761 17.8843C20.7541 17.9677 20.6998 18.0391 20.6252 18.0817L10.5567 23.9064C10.5058 23.9354 10.4499 23.9507 10.3939 23.9507Z" fill="#043A7C"/>
<path d="M20.4643 18.1259C20.41 18.1259 20.3524 18.1123 20.3015 18.0817L0.162889 6.43384C0.00684184 6.34368 -0.0457393 6.14464 0.0441575 5.98814C0.134054 5.83163 0.332506 5.77889 0.488553 5.86905L20.6271 17.5169C20.7832 17.6071 20.8358 17.8061 20.7459 17.9626C20.6865 18.0681 20.5763 18.1259 20.4643 18.1259Z" fill="#043A7C"/>
<path d="M0.325595 18.1259C0.213648 18.1259 0.103397 18.0681 0.0440315 17.9626C-0.0458653 17.8061 0.00841201 17.6071 0.162763 17.5169L20.3013 5.86734C20.4574 5.77718 20.6558 5.83162 20.7457 5.98642C20.8356 6.14293 20.7814 6.34197 20.627 6.43213L0.488427 18.0817C0.437542 18.1106 0.381569 18.1259 0.325595 18.1259Z" fill="#043A7C"/>
<path d="M10.7216 0.338501H10.0703V23.624H10.7216V0.338501Z" fill="#043A7C"/>
<path d="M40.7267 6.37086C42.5314 6.37086 44.0308 7.7488 44.2971 9.54183H37.1562C37.4225 7.7488 38.9219 6.37086 40.7267 6.37086ZM40.7267 13.856C38.9219 13.856 37.4225 12.478 37.1562 10.685H42.3312V10.6799H45.4776V10.1151C45.4776 7.42218 43.3456 5.23108 40.7267 5.23108C38.1078 5.23108 35.9757 7.42218 35.9757 10.1151C35.9757 12.8081 38.1078 14.9992 40.7267 14.9992C42.6111 14.9992 44.3022 13.8628 45.0672 12.0987H43.7899C43.1369 13.1823 41.9869 13.8577 40.7267 13.8577" fill="#043A7C"/>
<path d="M30.5565 13.856C28.5652 13.856 26.9437 12.1769 26.9437 10.1134C26.9437 8.0499 28.5635 6.37085 30.5565 6.37085C31.8456 6.37085 32.9786 7.07513 33.6181 8.12985H34.897C34.1558 6.42359 32.4901 5.22937 30.5565 5.22937C27.9376 5.22937 25.8055 7.42047 25.8055 10.1134C25.8055 12.8063 27.9376 14.9974 30.5565 14.9974C32.4409 14.9974 34.1337 13.8611 34.897 12.097H33.6198C32.9668 13.1806 31.8168 13.856 30.5565 13.856Z" fill="#043A7C"/>
<path d="M47.7913 7.30654V5.39954H46.6531V14.8257H47.7913V10.4112C47.7913 8.7134 48.9684 7.21468 50.5882 6.84552C50.9936 6.75366 51.4414 6.70603 51.9197 6.70603V5.56455C51.3566 5.56455 50.824 5.62069 50.3355 5.73296C49.3178 5.96432 48.4375 6.53591 47.7896 7.30654" fill="#043A7C"/>
<path d="M71.3814 7.30654V5.39954H70.2433V14.8257H71.3814V10.4112C71.3814 8.7134 72.5586 7.21468 74.1784 6.84552C74.5838 6.75366 75.0316 6.70603 75.5099 6.70603V5.56455C74.9468 5.56455 74.4142 5.62069 73.9257 5.73296C72.908 5.96432 72.0277 6.53591 71.3797 7.30654" fill="#043A7C"/>
<path d="M55.602 6.71623H58.5686V5.57475H55.602V3.30029H54.4622V5.57475H53.1714V6.71623H54.4622V14.6828H58.7077V13.5413H55.602V6.71623Z" fill="#043A7C"/>
<path d="M64.2067 13.8645C62.1441 13.8645 60.4666 12.1821 60.4666 10.1135C60.4666 8.04487 62.1441 6.36242 64.2067 6.36242C66.2692 6.36242 67.9467 8.04487 67.9467 10.1135C67.9467 12.1821 66.2692 13.8645 64.2067 13.8645ZM64.2067 5.21924C61.5165 5.21924 59.3285 7.41544 59.3285 10.1135C59.3285 12.8115 61.5165 15.006 64.2067 15.006C66.8968 15.006 69.0848 12.8115 69.0848 10.1135C69.0848 7.41544 66.8968 5.21924 64.2067 5.21924Z" fill="#043A7C"/>
<path d="M80.3881 13.8645C78.4765 13.8645 76.9211 12.1821 76.9211 10.1135C76.9211 8.04487 78.4765 6.36242 80.3881 6.36242C82.2996 6.36242 83.855 8.04487 83.855 10.1135C83.855 12.1821 82.2996 13.8645 80.3881 13.8645ZM83.8601 5.39956V6.90339C83.0154 5.87248 81.7721 5.21924 80.3881 5.21924C77.8489 5.21924 75.783 7.41374 75.783 10.1118C75.783 12.8098 77.8489 15.0043 80.3881 15.0043C81.7721 15.0043 83.0154 14.3511 83.8601 13.3219V14.824H84.9982V5.39956H83.8601Z" fill="#043A7C"/>
</g>
<defs>
<clipPath id="clip0_797_55129">
<rect width="85" height="24" fill="white"/>
</clipPath>
</defs>
</svg>
